<svg xmlns="http://www.w3.org/2000/svg" width="24" height="17" viewBox="0 0 24 17">
  <title>
    arrow right
  </title>
  <path fill="#13A1FE" fill-rule="evenodd" d="M23.6583792,7.73015591 L16.5208327,0.418327957 C16.0853532,-0.0277849462 15.3790929,-0.0277849462 14.9436134,0.418327957 C14.5080446,0.864532258 14.5080446,1.58785484 14.9436134,2.03405914 L20.1773086,7.39554839 L1.11524164,7.39554839 C0.499360595,7.39554839 0,7.90710215 0,8.53802151 C0,9.16884946 0.499360595,9.68049462 1.11524164,9.68049462 L20.1773086,9.68049462 L14.9437918,15.0419839 C14.508223,15.4881882 14.508223,16.2115108 14.9437918,16.6577151 C15.161487,16.8806344 15.4469888,16.9923226 15.7324015,16.9923226 C16.0178141,16.9923226 16.3032268,16.8806344 16.5210112,16.6577151 L23.6583792,9.3458871 C24.093948,8.8996828 24.093948,8.17636022 23.6583792,7.73015591 Z"/>
</svg>
