<svg xmlns="http://www.w3.org/2000/svg" width="40" height="38" viewBox="0 0 40 38">
  <title>
    coffee
  </title>
  <path fill="#13A1FE" d="M34.7604233,19.7965891 C37.6194709,19.7965891 39.9456085,22.0686305 39.9456085,24.8611886 C39.9456085,27.6537468 37.6194709,29.9257881 34.7604233,29.9257881 L31.3301587,29.9257881 C30.7375661,32.0764858 29.1765079,33.8226357 27.1375661,34.7073902 L32.7295238,34.7073902 C33.4306878,34.7073902 33.9993651,35.2628424 33.9993651,35.9477003 C33.9993651,36.6325581 33.4306878,37.1880103 32.7295238,37.1880103 L1.26984127,37.1880103 C0.568677249,37.1880103 5.68434189e-14,36.6325581 5.68434189e-14,35.9477003 C5.68434189e-14,35.2628424 0.568677249,34.7073902 1.26984127,34.7073902 L6.68296296,34.7073902 C4.16761905,33.616124 2.3773545,31.2140568 2.23809524,28.3592765 L1.67428571,16.8070284 C1.65777778,16.4682171 1.78412698,16.1376744 2.0237037,15.892093 C2.26328042,15.6467183 2.59534392,15.5078036 2.9426455,15.5078036 L30.877672,15.5078036 C31.2247619,15.5078036 31.557037,15.6467183 31.7966138,15.892093 C32.0361905,16.1374677 32.1625397,16.4682171 32.1460317,16.8070284 L32.0002116,19.7965891 L34.7604233,19.7965891 Z M24.0891005,32.857261 C26.7422222,32.857261 28.9193651,30.8295607 29.0457143,28.2410336 L29.5458201,17.9880103 L4.27449735,17.9880103 L4.77481481,28.2410336 C4.90116402,30.8295607 7.07830688,32.857261 9.73142857,32.857261 L24.0891005,32.857261 Z M34.7604233,27.445168 C36.2192593,27.445168 37.4059259,26.2860982 37.4059259,24.8611886 C37.4059259,23.4362791 36.2192593,22.2772093 34.7604233,22.2772093 L31.935873,22.2772093 C31.9168254,22.2772093 31.8982011,22.2753488 31.8793651,22.274522 L31.6270899,27.445168 L34.7604233,27.445168 Z M13.178836,13.4747287 C11.8169312,12.6883721 10.885291,11.2977778 10.6232804,9.65932817 C10.3572487,7.99875969 10.8340741,6.30697674 11.898836,5.13116279 C12.0389418,4.97157623 12.1790476,4.81426357 12.3180952,4.65839793 C13.349418,3.50160207 14.2402116,2.5025323 14.4685714,1.20516796 C14.5873016,0.53002584 15.2440212,0.0771059432 15.9352381,0.193074935 C16.6262434,0.309043928 17.0903704,0.950490956 16.9714286,1.62563307 C16.6226455,3.60806202 15.4078307,4.9701292 14.2332275,6.28775194 C14.0962963,6.44134367 13.9580952,6.59617571 13.8198942,6.75369509 C13.8150265,6.7594832 13.8099471,6.7650646 13.8048677,6.77064599 C13.2332275,7.39886305 12.9815873,8.33571059 13.1322751,9.27627907 C13.277037,10.1796382 13.7650794,10.9316796 14.4711111,11.3393282 C15.0749206,11.6878553 15.2751323,12.4483721 14.9180952,13.0381395 C14.6810582,13.4296641 14.2579894,13.6475452 13.8237037,13.6475452 C13.6040212,13.6475452 13.3815873,13.5917313 13.178836,13.4747287 Z M17.1197884,10.6739018 C15.8353439,7.44310078 18.3691005,4.80020672 19.2019048,3.93178295 C19.9955556,3.10387597 20.4783069,2.19162791 20.6368254,1.2202584 C20.7473016,0.543669251 21.3983069,0.0826873385 22.0907937,0.190594315 C22.7834921,0.298501292 23.2552381,0.934366925 23.1449735,1.61074935 C22.9085714,3.05943152 22.1860317,4.44816537 21.0556614,5.62728682 C19.461164,7.29033592 18.9921693,8.53105943 19.4871958,9.77612403 C19.7356614,10.401447 20.2016931,11.0007235 20.7655026,11.4205685 C21.3233862,11.8358656 21.4308995,12.6141602 21.0057143,13.158863 C20.7559788,13.4790698 20.3775661,13.6473385 19.9949206,13.6473385 C19.7263492,13.6473385 19.455873,13.5644444 19.2260317,13.3932817 C18.2869841,12.6941602 17.5390476,11.7283721 17.1197884,10.6739018 Z"/>
</svg>
