<svg xmlns="http://www.w3.org/2000/svg" width="20" height="20" viewBox="0 0 20 20">
  <title>
    notify
  </title>
  <path fill="#FFFFFF" d="M19.4522222,6.46074074 C20.1626337,7.17119342 20.162716,8.32707819 19.4521811,9.03761317 L9.03753086,19.4522634 C8.32711934,20.1627572 7.17123457,20.162716 6.46069959,19.4522634 L0.532839506,13.524321 C-0.177613169,12.8138683 -0.177613169,11.6580247 0.532839506,10.9474897 L10.947572,0.532880658 C11.6579835,-0.177654321 12.8138272,-0.177654321 13.5243621,0.532880658 L19.4522222,6.46074074 Z M7.55333333,18.7329218 L7.55333333,12.6599588 L1.38802469,12.6599588 C1.38975309,12.6616872 1.39012346,12.663786 1.3917284,12.6654733 L7.31958848,18.5932922 C7.38744856,18.6611111 7.46839506,18.7038272 7.55333333,18.7329218 Z M1.75312757,11.4451852 L11.1802881,11.4453909 C11.3220576,11.4453909 11.4453498,11.3220165 11.4454321,11.1802881 L11.4454321,1.75292181 L1.75312757,11.4451852 Z M8.76790123,18.0040329 L18.003786,8.768107 L12.66,8.76790123 L12.66,11.1803292 C12.6599588,11.5758436 12.5060905,11.9474074 12.226749,12.226749 C11.9474486,12.5060494 11.5758025,12.66 11.1803704,12.66 L8.76790123,12.66 L8.76790123,18.0040329 Z M12.6599588,7.55329218 L18.7327572,7.55349794 C18.7038272,7.46831276 18.66107,7.38740741 18.5933333,7.31962963 L12.6654733,1.39176955 C12.663786,1.3900823 12.6616049,1.38971193 12.6599588,1.38802469 L12.6599588,7.55329218 Z M0.591851852,2.57489712 C0.264979424,2.57489712 4.11522627e-05,2.30995885 4.11522627e-05,1.98312757 C4.11522627e-05,1.65625514 0.264979424,1.39131687 0.591851852,1.39131687 L6.81218107,1.39131687 C7.13901235,1.39131687 7.40399177,1.6562963 7.40399177,1.98312757 C7.40399177,2.30995885 7.13897119,2.57489712 6.81218107,2.57489712 L0.591851852,2.57489712 Z M0.591851852,4.89979424 C0.264979424,4.89979424 4.11522635e-05,4.63485597 4.11522635e-05,4.30798354 C4.11522635e-05,3.98115226 0.264979424,3.71621399 0.591851852,3.71621399 L4.49242798,3.71621399 C4.81925926,3.71621399 5.08419753,3.98119342 5.08419753,4.30798354 C5.08419753,4.63485597 4.81925926,4.89979424 4.49242798,4.89979424 L0.591851852,4.89979424 Z M0.591851852,7.15427984 C0.264979424,7.15427984 4.11522633e-05,6.88930041 4.11522633e-05,6.56246914 C4.11522633e-05,6.23563786 0.264979424,5.97065844 0.591851852,5.97065844 L3.11024691,5.97065844 C3.43707819,5.97065844 3.70205761,6.23559671 3.70205761,6.56246914 C3.70205761,6.88934156 3.43703704,7.15427984 3.11024691,7.15427984 L0.591851852,7.15427984 Z M3.11024691,18.0361317 C3.43707819,18.0361317 3.70205761,18.3011111 3.70205761,18.6279424 C3.70205761,18.9548148 3.43703704,19.2197531 3.11024691,19.2197531 L0.591851852,19.2197531 C0.264979424,19.2197531 4.11522633e-05,18.9547737 4.11522633e-05,18.6279424 C4.11522633e-05,18.3011111 0.264979424,18.0361317 0.591851852,18.0361317 L3.11024691,18.0361317 Z"/>
</svg>
