<svg xmlns="http://www.w3.org/2000/svg" width="20" height="18" viewBox="0 0 20 18">
  <title>
    randomize
  </title>
  <path fill="#FFFFFF" fill-rule="evenodd" stroke="#FFFFFF" stroke-width=".5" d="M8.13034623,11.8854545 C6.96822811,13.7472727 5.26720978,14.8163636 3.4598778,14.8236364 L1.44725051,14.8236364 C1.20162933,14.8236364 1,14.6236364 1,14.3763636 C1,14.1290909 1.19796334,13.9290909 1.44725051,13.9290909 L3.45621181,13.9290909 C4.94460285,13.9290909 6.36700611,13.0127273 7.36415479,11.4163636 L7.91405295,10.5363636 C8.04602851,10.3254545 8.32464358,10.26 8.53360489,10.3909091 C8.74623218,10.5218182 8.81221996,10.7945455 8.6802444,11.0054545 L8.13034623,11.8854545 Z M18.8313646,3.31818182 C19.007332,3.48909091 19.007332,3.77272727 18.8350305,3.94727273 L16.6537678,6.11090909 C16.5657841,6.19818182 16.4521385,6.24181818 16.3348269,6.24181818 C16.2175153,6.24181818 16.1038697,6.19818182 16.0158859,6.11090909 C15.8399185,5.93636364 15.8399185,5.65636364 16.0158859,5.48181818 L17.4309572,4.07818182 C17.4272912,4.07818182 17.4272912,4.07818182 17.4236253,4.07818182 L15.3486762,4.07818182 C13.8602851,4.07818182 12.4378819,4.99090909 11.4407332,6.58727273 L11.1034623,7.12909091 C11.0191446,7.26363636 10.8725051,7.34 10.7221996,7.34 C10.6415479,7.34 10.5608961,7.31818182 10.4875764,7.27454545 C10.2749491,7.14363636 10.2089613,6.87090909 10.3409369,6.66 L10.6782077,6.11818182 C11.8403259,4.25636364 13.5450102,3.18727273 15.3486762,3.18727273 L17.4272912,3.18727273 C17.4309572,3.18727273 17.4309572,3.18727273 17.4346232,3.18727273 L16.0195519,1.78363636 C15.8435845,1.60909091 15.8435845,1.32909091 16.0195519,1.15454545 C16.1955193,0.98 16.4778004,0.98 16.6537678,1.15454545 L18.8313646,3.31818182 Z M17.8998778,3.68272727 L17.9198778,3.66272727 L17.8998778,3.64272727 C17.8998778,3.65272727 17.8998778,3.65272727 17.8998778,3.66272727 C17.8998778,3.67272727 17.8998778,3.67272727 17.8998778,3.68272727 Z M16.0158859,16.8490909 C15.8435845,16.6745455 15.8435845,16.3945455 16.0158859,16.2272727 L17.4309572,14.8236364 C17.4272912,14.8236364 17.4272912,14.8236364 17.4236253,14.8236364 L15.410998,14.8236364 C13.607332,14.8236364 11.9026477,13.7545455 10.7405295,11.8890909 L7.43380855,6.59090909 C6.43665988,4.99818182 5.01059063,4.08181818 3.52586558,4.08181818 L1.44725051,4.08181818 C1.20162933,4.08181818 1,3.88181818 1,3.63454545 C1,3.38727273 1.19796334,3.18727273 1.44725051,3.18727273 L3.52953157,3.18727273 C5.33319756,3.18727273 7.03788187,4.25272727 8.2,6.11818182 L11.506721,11.4163636 C12.5038697,13.0127273 13.9299389,13.9290909 15.414664,13.9290909 L17.4272912,13.9290909 C17.4309572,13.9290909 17.4309572,13.9290909 17.4346232,13.9290909 L16.0195519,12.5254545 C15.8435845,12.3509091 15.8435845,12.0709091 16.0195519,11.8963636 C16.1955193,11.7218182 16.4778004,11.7218182 16.6537678,11.8963636 L18.8350305,14.0563636 C19.010998,14.2309091 19.010998,14.5109091 18.8350305,14.6854545 L16.6537678,16.8490909 C16.5657841,16.9363636 16.4521385,16.98 16.3348269,16.98 C16.2175153,16.98 16.1038697,16.9363636 16.0158859,16.8490909 Z M17.8998778,14.3845455 C17.8998778,14.3945455 17.8998778,14.3945455 17.8998778,14.4045455 C17.8998778,14.4145455 17.8998778,14.4145455 17.8998778,14.4245455 L17.9198778,14.4045455 L17.8998778,14.3845455 Z"/>
</svg>
